HIERARCHY
ROOT Hips
{
  OFFSET 5.84602e-005 68.8428 3.50346
  CHANNELS 6 Xposition Yposition Zposition Zrotation Xrotation Yrotation
  JOINT Spine
  {
    OFFSET 0 8.597 -4.6522
    CHANNELS 3 Zrotation Xrotation Yrotation
    JOINT Spine1
    {
      OFFSET 0 7.8454 0.4098
      CHANNELS 3 Zrotation Xrotation Yrotation
      JOINT Spine2
      {
        OFFSET 0 9.7078 -2.1609
        CHANNELS 3 Zrotation Xrotation Yrotation
        JOINT Neck
        {
          OFFSET 0 21.8761 -0.4549
          CHANNELS 3 Zrotation Xrotation Yrotation
          JOINT Head
          {
            OFFSET 0 12.3537 3.3602
            CHANNELS 3 Zrotation Xrotation Yrotation
            End Site
            {
              OFFSET 0.0001 18.9506 0.5657
            }
          }
        }
        JOINT LeftShoulder
        {
          OFFSET 2.2086 21.1115 7.2329
          CHANNELS 3 Zrotation Xrotation Yrotation
          JOINT LeftArm
          {
            OFFSET 13.1193 3.0282 -4.8998
            CHANNELS 3 Zrotation Xrotation Yrotation
            JOINT LeftForeArm
            {
              OFFSET 27.4081 -0.0973053 -0.2375
              CHANNELS 3 Zrotation Xrotation Yrotation
              JOINT LeftHand
              {
                OFFSET 22.8641 0.0662994 -0.1369
                CHANNELS 3 Zrotation Xrotation Yrotation
                JOINT LeftHandIndex1
                {
                  OFFSET 8.8614 0.775009 2.4612
                  CHANNELS 3 Zrotation Xrotation Yrotation
                  JOINT LeftHandIndex2
                  {
                    OFFSET 3.3146 -0.808304 0.5841
                    CHANNELS 3 Zrotation Xrotation Yrotation
                    JOINT LeftHandIndex3
                    {
                      OFFSET 2.2628 -0.552002 0.3989
                      CHANNELS 3 Zrotation Xrotation Yrotation
                      End Site
                      {
                        OFFSET 1.6102 -0.4807 0.2612
                      }
                    }
                  }
                }
                JOINT LeftHandMiddle1
                {
                  OFFSET 8.9937 0.895004 0.2143
                  CHANNELS 3 Zrotation Xrotation Yrotation
                  JOINT LeftHandMiddle2
                  {
                    OFFSET 4.0984 0.0113983 -0.0242
                    CHANNELS 3 Zrotation Xrotation Yrotation
                    JOINT LeftHandMiddle3
                    {
                      OFFSET 2.2716 0.00689697 -0.0138001
                      CHANNELS 3 Zrotation Xrotation Yrotation
                      End Site
                      {
                        OFFSET 2.0404 -0.1441 0.0027
                      }
                    }
                  }
                }
                JOINT LeftHandRing1
                {
                  OFFSET 8.5234 0.597198 -2.0164
                  CHANNELS 3 Zrotation Xrotation Yrotation
                  JOINT LeftHandRing2
                  {
                    OFFSET 3.7188 -0.188293 -0.2328
                    CHANNELS 3 Zrotation Xrotation Yrotation
                    JOINT LeftHandRing3
                    {
                      OFFSET 2.1191 -0.106598 -0.1332
                      CHANNELS 3 Zrotation Xrotation Yrotation
                      End Site
                      {
                        OFFSET 1.8737 -0.2304 -0.0886
                      }
                    }
                  }
                }
                JOINT LeftHandPinky1
                {
                  OFFSET 7.9094 -0.601089 -3.4825
                  CHANNELS 3 Zrotation Xrotation Yrotation
                  JOINT LeftHandPinky2
                  {
                    OFFSET 2.2874 -0.477005 -0.6314
                    CHANNELS 3 Zrotation Xrotation Yrotation
                    JOINT LeftHandPinky3
                    {
                      OFFSET 1.6774 -0.349396 -0.4633
                      CHANNELS 3 Zrotation Xrotation Yrotation
                      End Site
                      {
                        OFFSET 1.4888 -0.4091 -0.3416
                      }
                    }
                  }
                }
                JOINT LeftHandThumb1
                {
                  OFFSET 1.833 -1.3875 1.3896
                  CHANNELS 3 Zrotation Xrotation Yrotation
                  JOINT LeftHandThumb2
                  {
                    OFFSET 3.4129 -1.121 2.5732
                    CHANNELS 3 Zrotation Xrotation Yrotation
                    JOINT LeftHandThumb3
                    {
                      OFFSET 2.2474 -0.804199 1.6192
                      CHANNELS 3 Zrotation Xrotation Yrotation
                      End Site
                      {
                        OFFSET 1.6527 -0.5689 1.1317
                      }
                    }
                  }
                }
              }
            }
          }
        }
        JOINT RightShoulder
        {
          OFFSET -2.2086 21.1115 7.2329
          CHANNELS 3 Zrotation Xrotation Yrotation
          JOINT RightArm
          {
            OFFSET -13.1216 3.0287 -4.9007
            CHANNELS 3 Zrotation Xrotation Yrotation
            JOINT RightForeArm
            {
              OFFSET -27.4081 -0.0973053 -0.2375
              CHANNELS 3 Zrotation Xrotation Yrotation
              JOINT RightHand
              {
                OFFSET -22.8641 0.0664063 -0.1369
                CHANNELS 3 Zrotation Xrotation Yrotation
                JOINT RightHandIndex1
                {
                  OFFSET -8.8614 0.774994 2.4612
                  CHANNELS 3 Zrotation Xrotation Yrotation
                  JOINT RightHandIndex2
                  {
                    OFFSET -3.3146 -0.808304 0.5841
                    CHANNELS 3 Zrotation Xrotation Yrotation
                    JOINT RightHandIndex3
                    {
                      OFFSET -2.2628 -0.552002 0.3989
                      CHANNELS 3 Zrotation Xrotation Yrotation
                      End Site
                      {
                        OFFSET -1.6102 -0.4807 0.2612
                      }
                    }
                  }
                }
                JOINT RightHandMiddle1
                {
                  OFFSET -8.9937 0.894989 0.2143
                  CHANNELS 3 Zrotation Xrotation Yrotation
                  JOINT RightHandMiddle2
                  {
                    OFFSET -4.0984 0.0113983 -0.0242
                    CHANNELS 3 Zrotation Xrotation Yrotation
                    JOINT RightHandMiddle3
                    {
                      OFFSET -2.2716 0.00691223 -0.0138001
                      CHANNELS 3 Zrotation Xrotation Yrotation
                      End Site
                      {
                        OFFSET -2.0404 -0.1441 0.0027
                      }
                    }
                  }
                }
                JOINT RightHandRing1
                {
                  OFFSET -8.5234 0.597198 -2.0164
                  CHANNELS 3 Zrotation Xrotation Yrotation
                  JOINT RightHandRing2
                  {
                    OFFSET -3.7188 -0.188309 -0.2328
                    CHANNELS 3 Zrotation Xrotation Yrotation
                    JOINT RightHandRing3
                    {
                      OFFSET -2.1191 -0.106598 -0.1332
                      CHANNELS 3 Zrotation Xrotation Yrotation
                      End Site
                      {
                        OFFSET -1.8737 -0.2304 -0.0886
                      }
                    }
                  }
                }
                JOINT RightHandPinky1
                {
                  OFFSET -7.9094 -0.601105 -3.4825
                  CHANNELS 3 Zrotation Xrotation Yrotation
                  JOINT RightHandPinky2
                  {
                    OFFSET -2.2874 -0.477005 -0.6314
                    CHANNELS 3 Zrotation Xrotation Yrotation
                    JOINT RightHandPinky3
                    {
                      OFFSET -1.6774 -0.349396 -0.4633
                      CHANNELS 3 Zrotation Xrotation Yrotation
                      End Site
                      {
                        OFFSET -1.4888 -0.4091 -0.3416
                      }
                    }
                  }
                }
                JOINT RightHandThumb1
                {
                  OFFSET -1.833 -1.38751 1.3896
                  CHANNELS 3 Zrotation Xrotation Yrotation
                  JOINT RightHandThumb2
                  {
                    OFFSET -3.41299 -1.12099 2.5732
                    CHANNELS 3 Zrotation Xrotation Yrotation
                    JOINT RightHandThumb3
                    {
                      OFFSET -2.24741 -0.804108 1.6192
                      CHANNELS 3 Zrotation Xrotation Yrotation
                      End Site
                      {
                        OFFSET -1.6527 -0.5689 1.1317
                      }
                    }
                  }
                }
              }
            }
          }
        }
      }
    }
  }
  JOINT RightUpLeg
  {
    OFFSET -9.1966 3.8861 -0.7581
    CHANNELS 3 Zrotation Xrotation Yrotation
    JOINT RightLeg
    {
      OFFSET -0.7359 -41.0265 0
      CHANNELS 3 Zrotation Xrotation Yrotation
      JOINT RightFoot
      {
        OFFSET 0 -40.2855 0
        CHANNELS 3 Zrotation Xrotation Yrotation
        JOINT RightToeBase
        {
          OFFSET 0 -5.6122 11.7359
          CHANNELS 3 Zrotation Xrotation Yrotation
          End Site
          {
            OFFSET 0 0 7.8731
          }
        }
      }
    }
  }
  JOINT LeftUpLeg
  {
    OFFSET 9.1965 3.8864 -0.7581
    CHANNELS 3 Zrotation Xrotation Yrotation
    JOINT LeftLeg
    {
      OFFSET 0.7359 -41.0268 0
      CHANNELS 3 Zrotation Xrotation Yrotation
      JOINT LeftFoot
      {
        OFFSET 0 -40.2855 0
        CHANNELS 3 Zrotation Xrotation Yrotation
        JOINT LeftToeBase
        {
          OFFSET 0 -5.6122 11.7359
          CHANNELS 3 Zrotation Xrotation Yrotation
          End Site
          {
            OFFSET 0 0 7.8731
          }
        }
      }
    }
  }
}
MOTION
Frames:	7
Frame Time:	0.0333333
39.7266 68.21 24.3433 0 20.0231 -0 -0.233039 -1.93113 -0.168978 -0.472181 -3.86154 -0.346113 -0.472181 -3.86154 -0.346113 20.9575 17.0244 -6.40192 -10.1211 8.73595 1.55027 -24.1944 15.0434 20.2114 -59.9525 -0.505595 4.33308 -6.9552 2.65624 0.158155 -5.86304 5.72287 -9.99221 1.59028e-015 7.95139e-016 -3.18055e-015 -1.19271e-015 0 -6.36111e-015 1.59028e-015 0 -6.36111e-015 1.59028e-015 7.95139e-016 -3.18055e-015 -0.0145767 -8.70765e-005 -1.4708e-006 1.19271e-015 1.59028e-015 -9.54166e-015 1.59028e-015 7.95139e-016 -3.18055e-015 -0.0187163 -0.00117132 6.33909e-005 -1.98785e-015 0 -6.36111e-015 1.59028e-015 7.95139e-016 -3.18055e-015 -0.0123798 -0.00327711 0.000680883 -3.97569e-016 7.95139e-016 -9.54166e-015 1.59028e-015 7.95139e-016 -3.18055e-015 -1.19271e-015 0 -6.36111e-015 1.59028e-015 0 -6.36111e-015 29.608 11.9086 -21.7202 54.6741 0.0312062 -4.38007 4.61687 2.64792 -0.160131 7.46854 5.24024 8.8007 -1.11319e-014 -9.54166e-015 -6.36111e-015 -1.19271e-014 -6.36111e-015 3.18055e-015 -9.54166e-015 -4.77083e-015 3.18055e-015 -1.11319e-014 -9.54166e-015 -6.36111e-015 0.0149789 -9.02948e-005 -2.73512e-006 -7.95139e-016 -1.59028e-015 -9.54166e-015 -1.11319e-014 -9.54166e-015 -6.36111e-015 0.0189997 -0.00118992 -6.15315e-005 8.82781e-032 1.59028e-015 -3.18055e-015 -1.11319e-014 -9.54166e-015 -6.36111e-015 0.0122739 -0.00324881 -0.00067745 -7.95139e-016 1.59028e-015 6.36111e-015 -1.11319e-014 -9.54166e-015 -6.36111e-015 -1.19271e-014 -6.36111e-015 3.18055e-015 -9.54166e-015 -4.77083e-015 3.18055e-015 1.61943 -20.4453 -10.4789 5.12674 0.667919 0.260635 3.55538 -5.2757 -18.1543 1.85916e-006 -3.90988e-007 1.75788e-008 3.6671 -27.1536 -5.7311 -12.7484 10.5325 3.36571 -3.01808 -6.61315 18.4405 -4.79666e-009 -3.95282e-008 -4.02104e-009 
39.7267 68.2172 24.4096 0 19.547 -0 -0.233648 -1.82584 -0.168716 -0.473039 -3.65096 -0.345147 -0.473039 -3.65096 -0.345147 20.8913 16.4494 -6.1723 -10.1035 8.06852 1.42998 -23.9803 14.9038 19.9593 -60.1439 -0.525489 4.31914 -6.95518 2.65623 0.158167 -5.78874 5.62261 -9.82089 -4.62796e-007 7.97222e-007 -1.31776e-006 3.97569e-016 4.77083e-015 3.18055e-015 -1.76556e-031 1.59028e-015 6.36111e-015 -4.62796e-007 7.97222e-007 -1.31776e-006 -0.0145793 -8.8178e-005 2.53295e-006 2.38542e-015 7.95139e-016 3.18055e-015 -4.62796e-007 7.97222e-007 -1.31776e-006 -0.0187646 -0.00117759 6.12385e-005 -1.98785e-015 0 -6.36111e-015 -4.62796e-007 7.97222e-007 -1.31776e-006 -0.0122974 -0.00325392 0.00068033 1.19271e-015 -2.38542e-015 -9.54166e-015 -4.62796e-007 7.97222e-007 -1.31776e-006 3.97569e-016 4.77083e-015 3.18055e-015 -1.76556e-031 1.59028e-015 6.36111e-015 29.3943 11.7747 -21.4566 54.8856 0.006969 -4.37358 4.61689 2.64794 -0.160129 7.37288 5.15726 8.63371 3.59961e-007 -1.77745e-006 -5.29921e-007 -3.53113e-031 3.18055e-015 6.36111e-015 -0 0 3.18055e-015 3.59961e-007 -1.77745e-006 -5.29921e-007 0.015022 -9.11651e-005 3.40277e-006 -1.59028e-015 -3.18055e-015 6.36111e-015 3.59961e-007 -1.77745e-006 -5.29921e-007 0.0189915 -0.00119227 -6.09132e-005 -1.11319e-014 -9.54166e-015 3.18055e-015 3.59961e-007 -1.77745e-006 -5.29921e-007 0.0122586 -0.00324085 -0.000678738 3.53113e-031 -3.18055e-015 6.36111e-015 3.59961e-007 -1.77745e-006 -5.29921e-007 -3.53113e-031 3.18055e-015 6.36111e-015 -0 0 3.18055e-015 1.6104 -19.9572 -10.4635 5.12677 0.698017 0.260374 3.55554 -5.29157 -18.1538 1.64386e-006 4.30442e-007 -6.0374e-008 3.62112 -26.595 -5.80089 -12.7487 10.5368 3.36597 -3.01822 -6.61512 18.4404 1.51771e-008 1.25173e-007 1.27464e-008 
39.7269 68.225 24.4758 0 19.071 -0 -0.234258 -1.72057 -0.168459 -0.4739 -3.44042 -0.344191 -0.4739 -3.44042 -0.344191 20.8278 15.874 -5.94403 -10.0873 7.40096 1.31006 -23.767 14.7633 19.7078 -60.3353 -0.545319 4.30511 -6.95519 2.65624 0.158135 -5.71416 5.52259 -9.64947 -3.97569e-016 0 3.18055e-015 1.59028e-015 0 9.54166e-015 3.97569e-016 0 9.54166e-015 -3.97569e-016 0 3.18055e-015 -0.0145531 -8.81195e-005 -1.49516e-006 3.18055e-015 1.59028e-015 6.36111e-015 -3.97569e-016 0 3.18055e-015 -0.0187817 -0.00117675 5.74096e-005 1.59028e-015 7.95139e-016 -0 -3.97569e-016 0 3.18055e-015 -0.012285 -0.00324997 0.000675411 1.59028e-015 -2.38542e-015 -0 -3.97569e-016 0 3.18055e-015 1.59028e-015 0 9.54166e-015 3.97569e-016 0 9.54166e-015 29.1813 11.6399 -21.1938 55.0971 -0.0172538 -4.36701 4.61688 2.64793 -0.160139 7.27698 5.07457 8.46662 1.80995e-007 -5.67927e-007 6.04718e-007 -2.71467e-009 -6.41508e-007 -1.74057e-006 2.97041e-007 -9.33312e-008 -4.20513e-007 1.80995e-007 -5.67927e-007 6.04718e-007 0.0149644 -9.01638e-005 -7.69032e-007 -2.77493e-009 -6.41735e-007 -1.74049e-006 1.80995e-007 -5.67927e-007 6.04718e-007 0.0189772 -0.00118858 -6.45084e-005 -2.80707e-009 -6.41792e-007 -1.74046e-006 1.80995e-007 -5.67927e-007 6.04718e-007 0.0122672 -0.00324675 -0.000677586 -5.96165e-007 1.87306e-007 8.41139e-007 1.80995e-007 -5.67927e-007 6.04718e-007 -2.71467e-009 -6.41508e-007 -1.74057e-006 2.97041e-007 -9.33312e-008 -4.20513e-007 1.60485 -19.451 -10.4462 5.12676 0.690753 0.26053 3.55573 -5.28858 -18.1539 -8.21996e-007 -2.15006e-007 2.99858e-008 3.57614 -26.0361 -5.86987 -12.749 10.5402 3.36619 -3.01837 -6.61668 18.4404 8.67212e-007 9.54803e-008 2.1622e-008 
39.727 68.2333 24.5419 0 18.595 -0 -0.234868 -1.61532 -0.168198 -0.474765 -3.22995 -0.343226 -0.474765 -3.22996 -0.343226 20.7669 15.2986 -5.71711 -10.0726 6.73327 1.1905 -23.5544 14.622 19.4571 -60.5267 -0.565125 4.29101 -6.95518 2.65623 0.158137 -5.63928 5.42279 -9.47796 3.64514e-007 1.79234e-006 -4.92195e-007 -3.97569e-016 1.59028e-015 -1.27222e-014 5.29669e-031 3.18055e-015 -9.54166e-015 3.64514e-007 1.79234e-006 -4.92195e-007 -0.0146208 -8.7376e-005 -7.9271e-007 2.38542e-015 -2.38542e-015 3.18055e-015 3.64514e-007 1.79234e-006 -4.92195e-007 -0.0187439 -0.00117665 5.87241e-005 -1.19271e-015 2.38542e-015 3.18055e-015 3.64514e-007 1.79234e-006 -4.92195e-007 -0.0123395 -0.00326343 0.000677395 -4.51096e-007 7.99847e-007 -1.32637e-006 3.64514e-007 1.79234e-006 -4.92195e-007 -3.97569e-016 1.59028e-015 -1.27222e-014 5.29669e-031 3.18055e-015 -9.54166e-015 28.9691 11.5044 -20.9316 55.3087 -0.0414294 -4.36033 4.61689 2.64793 -0.16015 7.18084 4.99215 8.29941 7.95139e-016 -1.59028e-015 6.36111e-015 -1.80498e-007 5.68392e-007 -6.04443e-007 0 6.36111e-015 -0 7.95139e-016 -1.59028e-015 6.36111e-015 0.0149971 -9.33622e-005 -2.67082e-006 -1.59028e-015 0 3.18055e-015 7.95139e-016 -1.59028e-015 6.36111e-015 0.0190289 -0.00119309 -6.64213e-005 -1.43125e-014 -6.36111e-015 3.18055e-015 7.95139e-016 -1.59028e-015 6.36111e-015 0.0122689 -0.00324733 -0.00067541 0 0 -6.36111e-015 7.95139e-016 -1.59028e-015 6.36111e-015 -1.80498e-007 5.68392e-007 -6.04443e-007 0 6.36111e-015 -0 1.59227 -18.98 -10.4324 5.12683 0.755701 0.259878 3.55584 -5.32204 -18.1529 -7.14669e-007 -6.25824e-007 6.88907e-008 3.53214 -25.4769 -5.93804 -12.7493 10.5432 3.36639 -3.01852 -6.61804 18.4403 -3.14174e-007 -2.4255e-009 4.90341e-008 
39.7271 68.2421 24.608 0 18.1191 -0 -0.235469 -1.51009 -0.167926 -0.475615 -3.01946 -0.34224 -0.475615 -3.01946 -0.34224 20.7088 14.7233 -5.49154 -10.0593 6.06554 1.07126 -23.3427 14.4797 19.2071 -60.7181 -0.584862 4.27686 -6.95517 2.65624 0.158144 -5.56412 5.32322 -9.30635 -3.97569e-016 0 3.18055e-015 1.68034e-007 5.55767e-007 6.18227e-007 -1.98785e-015 7.95139e-016 -0 -3.97569e-016 0 3.18055e-015 -0.0146047 -9.11765e-005 -3.94405e-006 -3.97569e-016 2.38542e-015 -3.18055e-015 -3.97569e-016 0 3.18055e-015 -0.0187511 -0.001177 6.00778e-005 0 1.59028e-015 -0 -3.97569e-016 0 3.18055e-015 -0.0122476 -0.00324028 0.000673245 -4.44695e-007 8.01315e-007 -1.33072e-006 -3.97569e-016 0 3.18055e-015 1.68034e-007 5.55767e-007 6.18227e-007 -1.98785e-015 7.95139e-016 -0 28.7576 11.3677 -20.67 55.5202 -0.0656073 -4.3536 4.61688 2.64794 -0.160122 7.0845 4.91002 8.13208 2.38542e-015 0 3.18055e-015 2.38542e-015 -3.18055e-015 9.54166e-015 1.59028e-015 0 1.27222e-014 2.38542e-015 0 3.18055e-015 0.0149991 -9.01746e-005 -1.92021e-006 7.95139e-016 4.77083e-015 -0 2.38542e-015 0 3.18055e-015 0.0190151 -0.00119191 -6.35651e-005 -3.18055e-015 -1.59028e-015 9.54166e-015 2.38542e-015 0 3.18055e-015 0.012307 -0.00325522 -0.000672997 0 0 -9.54166e-015 2.38542e-015 0 3.18055e-015 2.38542e-015 -3.18055e-015 9.54166e-015 1.59028e-015 0 1.27222e-014 1.58533 -18.4798 -10.4156 5.12684 0.760316 0.259922 3.55602 -5.32504 -18.1528 -9.29421e-007 1.96489e-007 -9.4946e-009 3.48904 -24.9184 -6.00538 -12.7496 10.5473 3.36664 -3.01865 -6.61997 18.4403 6.37417e-009 5.27043e-008 5.38289e-009 
39.7272 68.2515 24.674 0 17.6433 -0 -0.236063 -1.40484 -0.167654 -0.476452 -2.80893 -0.341252 -0.476453 -2.80892 -0.341252 20.6524 14.1464 -5.26672 -10.0474 5.39781 0.952321 -23.1317 14.3363 18.9577 -60.9096 -0.60456 4.26265 -6.95517 2.65623 0.158131 -5.48867 5.22385 -9.13464 4.37189e-007 -8.0298e-007 1.33521e-006 1.19271e-015 -1.59028e-015 -0 -1.59028e-015 0 3.18055e-015 4.37189e-007 -8.0298e-007 1.33521e-006 -0.0145832 -9.36289e-005 -9.28287e-007 -1.98785e-015 2.38542e-015 -0 4.37189e-007 -8.0298e-007 1.33521e-006 -0.0187339 -0.00117686 5.77916e-005 -1.19271e-015 0 -3.18055e-015 4.37189e-007 -8.0298e-007 1.33521e-006 -0.0122869 -0.00324756 0.000673867 -7.95139e-016 2.38542e-015 -0 4.37189e-007 -8.0298e-007 1.33521e-006 1.19271e-015 -1.59028e-015 -0 -1.59028e-015 0 3.18055e-015 28.5468 11.2299 -20.409 55.7317 -0.0897464 -4.34675 4.61686 2.64793 -0.16012 6.98793 4.82815 7.96464 -7.95139e-016 0 3.18055e-015 -0 -3.18055e-015 -0 2.38542e-015 0 6.36111e-015 -7.95139e-016 0 3.18055e-015 0.0150069 -9.07779e-005 3.73776e-007 2.38542e-015 0 6.36111e-015 -7.95139e-016 0 3.18055e-015 0.0189968 -0.00119083 -5.78433e-005 2.81881e-007 5.52133e-007 1.33793e-006 -7.95139e-016 0 3.18055e-015 0.0123137 -0.00325652 -0.000678349 -7.95139e-016 0 6.36111e-015 -7.95139e-016 0 3.18055e-015 -0 -3.18055e-015 -0 2.38542e-015 0 6.36111e-015 1.58001 -17.9706 -10.3979 5.12682 0.746508 0.260144 3.55621 -5.31876 -18.153 -1.07181e-007 4.111e-007 -3.90525e-008 3.44689 -24.3597 -6.07196 -12.7499 10.5508 3.36687 -3.01879 -6.62159 18.4402 -8.56006e-007 -3.51087e-009 -1.42903e-008 
39.7273 68.2615 24.7399 0 17.1676 -0 -0.236665 -1.29966 -0.167384 -0.477313 -2.59861 -0.34027 -0.477313 -2.59861 -0.340269 20.599 13.5704 -5.0434 -10.0369 4.73013 0.833655 -22.9216 14.1924 18.7092 -61.101 -0.624204 4.24836 -6.95518 2.65624 0.158141 -5.41296 5.12474 -8.96283 -1.67206e-007 -5.56602e-007 -6.17694e-007 -1.67206e-007 -5.56602e-007 -6.17694e-007 -1.67206e-007 -5.56602e-007 -6.17694e-007 -1.67206e-007 -5.56602e-007 -6.17694e-007 -0.0145853 -9.02044e-005 -2.34952e-006 -1.67218e-007 -5.56524e-007 -6.17765e-007 -1.67206e-007 -5.56602e-007 -6.17694e-007 -0.018796 -0.00117972 5.72259e-005 -1.67228e-007 -5.56502e-007 -6.17784e-007 -1.67206e-007 -5.56602e-007 -6.17694e-007 -0.0122899 -0.00325104 0.000673357 -1.67237e-007 -5.56538e-007 -6.17748e-007 -1.67206e-007 -5.56602e-007 -6.17694e-007 -1.67206e-007 -5.56602e-007 -6.17694e-007 -1.67206e-007 -5.56602e-007 -6.17694e-007 28.3368 11.0915 -20.1489 55.9432 -0.113858 -4.33981 4.61689 2.64793 -0.160148 6.89113 4.7466 7.79709 1.59028e-015 3.18055e-015 9.54166e-015 3.18055e-015 1.59028e-015 1.27222e-014 7.95139e-016 0 3.18055e-015 1.59028e-015 3.18055e-015 9.54166e-015 0.0150041 -9.01442e-005 -2.48385e-006 7.95139e-016 0 -0 1.59028e-015 3.18055e-015 9.54166e-015 0.0189834 -0.00119146 -5.80654e-005 -1.35174e-014 -7.95139e-015 1.27222e-014 1.59028e-015 3.18055e-015 9.54166e-015 0.0122525 -0.00324119 -0.000673031 -1.59028e-015 -1.59028e-015 -9.54166e-015 1.59028e-015 3.18055e-015 9.54166e-015 3.18055e-015 1.59028e-015 1.27222e-014 7.95139e-016 0 3.18055e-015 1.57349 -17.4669 -10.3808 5.12682 0.743789 0.260237 3.55641 -5.31807 -18.153 -1.64454e-006 -4.28295e-007 5.83732e-008 3.40565 -23.8007 -6.13781 -12.7501 10.5537 3.36705 -3.01892 -6.6229 18.4402 6.36295e-009 5.27043e-008 5.39314e-009 
